<svg width="18" height="18" viewBox="0 0 18 18" fill="none" xmlns="http://www.w3.org/2000/svg">
<path d="M17.5465 10.5705L16.3171 9.88728C16.3944 9.2981 16.3944 8.7019 16.3171 8.11272L17.5465 7.42948C17.9076 7.22887 18.0817 6.8161 17.963 6.43146C17.5402 5.06153 16.7877 3.82842 15.7939 2.81712C15.5061 2.52425 15.0468 2.46017 14.6841 2.66172L13.4565 3.34391C12.9655 2.98419 12.4291 2.68569 11.8603 2.45552V1.09049C11.8603 0.686582 11.5718 0.335509 11.1634 0.242497C9.74424 -0.0808142 8.25606 -0.0808504 6.83656 0.242497C6.42823 0.335509 6.13971 0.686546 6.13971 1.09049V2.45552C5.57086 2.68568 5.03454 2.98418 4.54351 3.34391L3.31591 2.66172C2.95319 2.46017 2.49389 2.52425 2.20612 2.81712C1.21234 3.82842 0.459802 5.06157 0.0370296 6.43146C-0.081689 6.8161 0.0924493 7.22883 0.453468 7.42948L1.68288 8.11272C1.60559 8.7019 1.60559 9.2981 1.68288 9.88728L0.453468 10.5705C0.0924493 10.7711 -0.081689 11.1839 0.0370296 11.5685C0.459802 12.9384 1.21234 14.1716 2.20612 15.1829C2.49393 15.4757 2.95323 15.5398 3.31591 15.3383L4.54351 14.6561C5.03453 15.0158 5.57086 15.3143 6.13971 15.5445V16.9095C6.13971 17.3134 6.42819 17.6645 6.83656 17.7575C8.25579 18.0808 9.74394 18.0808 11.1634 17.7575C11.5718 17.6645 11.8603 17.3135 11.8603 16.9095V15.5445C12.4291 15.3143 12.9655 15.0158 13.4565 14.6561L14.6841 15.3383C15.0468 15.5399 15.5061 15.4758 15.7939 15.1829C16.7877 14.1716 17.5402 12.9384 17.963 11.5685C18.0817 11.1839 17.9076 10.7712 17.5465 10.5705ZM15.0779 14.2163L13.3321 13.2459C12.3146 14.0831 11.9538 14.2938 10.6539 14.7359V16.6767C9.56278 16.8934 8.43722 16.8934 7.34612 16.6767V14.7359C6.0786 14.3048 5.71162 14.1047 4.66792 13.2459L2.92205 14.2163C2.17898 13.4146 1.61426 12.4747 1.26591 11.4597L3.01253 10.4893C2.76616 9.20404 2.76605 8.79661 3.01253 7.51066L1.26591 6.54026C1.61426 5.52525 2.17902 4.58533 2.92205 3.78331L4.66792 4.75444C5.70005 3.90401 6.06521 3.69966 7.34612 3.26403V1.3233C8.43718 1.10628 9.56282 1.10628 10.6539 1.3233V3.26407C11.9349 3.69974 12.3001 3.90412 13.3321 4.75448L15.0779 3.78335C15.821 4.58533 16.3857 5.52525 16.7341 6.54029L14.9875 7.5107C15.2339 8.79632 15.234 9.20343 14.9875 10.4894L16.7341 11.4598C16.3857 12.4747 15.821 13.4147 15.0779 14.2163ZM9 5.51614C7.00433 5.51614 5.38076 7.07899 5.38076 9.00002C5.38076 10.921 7.00433 12.4839 9 12.4839C10.9957 12.4839 12.6192 10.921 12.6192 9.00002C12.6192 7.07899 10.9957 5.51614 9 5.51614ZM9 11.3226C7.66955 11.3226 6.58717 10.2807 6.58717 9.00002C6.58717 7.71933 7.66955 6.67743 9 6.67743C10.3304 6.67743 11.4128 7.71933 11.4128 9.00002C11.4128 10.2807 10.3304 11.3226 9 11.3226Z" fill="#A4A4A4"/>
</svg>
