<svg width="21" height="17" viewBox="0 0 21 17" fill="none" xmlns="http://www.w3.org/2000/svg">
<path d="M20.0027 6.08414L20.0026 6.08403L17.2891 1.39653L17.2888 1.39609C17.0926 1.05979 16.7284 0.85 16.3339 0.85H4.66611C4.27156 0.85 3.90741 1.05979 3.71119 1.39609L3.71094 1.39653L0.997361 6.08403L0.997295 6.08414C0.576043 6.8133 1.10628 7.7125 1.94956 7.7125H2.74961V15.0186C2.74961 15.6387 3.23668 16.15 3.84966 16.15H11.45C12.063 16.15 12.5501 15.6387 12.5501 15.0186V7.7125H17.0003V15.7656C17.0003 15.9792 17.1763 16.15 17.3878 16.15H17.8629C18.0745 16.15 18.2504 15.9792 18.2504 15.7656V7.7125H19.0504C19.8937 7.7125 20.424 6.8133 20.0027 6.08414ZM3.99966 14.9183V11.4625H11.3V14.9126L3.99966 14.9183ZM11.3 10.225H3.99966V7.7125H11.3V10.225ZM16.2475 2.0875L18.7901 6.475H2.21269L4.7526 2.0875H16.2475Z" fill="#A4A4A4" stroke="#A4A4A4" stroke-width="0.3"/>
</svg>
